<svg width="40" height="31" viewBox="0 0 40 31"
	xmlns="http://www.w3.org/2000/svg">
	<path d="M0 30.3835V21.6903C0 19.1903 0.46875 16.5909 1.40625 13.892C2.37216 11.1648 3.67898 8.59375 5.3267 6.17898C7.00284 3.7358 8.87784 1.67614 10.9517 0L18.1108 4.64489C16.4347 7.1733 15.0284 9.81534 13.892 12.571C12.7841 15.2983 12.2443 18.3097 12.2727 21.6051V30.3835H0ZM21.6051 30.3835V21.6903C21.6051 19.1903 22.0739 16.5909 23.0114 13.892C23.9773 11.1648 25.2841 8.59375 26.9318 6.17898C28.608 3.7358 30.483 1.67614 32.5568 0L39.7159 4.64489C38.0398 7.1733 36.6335 9.81534 35.4972 12.571C34.3892 15.2983 33.8494 18.3097 33.8778 21.6051V30.3835H21.6051Z" fill="#2449FB"/>
</svg>
