<svg width="64" height="64" viewBox="0 0 64 64" fill="none" xmlns="http://www.w3.org/2000/svg">
<g id="rocket-launch">
<path id="rocket-launch_2" d="M15.6006 41.9461C13.8673 41.9461 12.1606 42.6128 10.854 43.9194C8.69398 46.0794 6.64062 53.3328 6.08062 55.4928C5.89395 56.1861 6.08063 56.9061 6.58729 57.4128C6.96063 57.8128 7.49398 58.0261 8.02732 58.0261C8.18732 58.0261 8.3473 58.0261 8.5073 57.9728C10.5873 57.4661 17.5473 55.6261 19.7339 53.4661C22.4539 50.7461 22.6406 46.4795 20.1339 43.9461C18.9073 42.7194 17.3073 42.0261 15.6539 41.9728L15.6006 41.9461ZM16.8806 50.5861C16.2139 51.2528 13.6806 52.2394 10.9606 53.0928C11.9206 50.1594 13.014 47.4394 13.7073 46.7194C14.2407 46.1861 14.854 45.8928 15.5206 45.9194C16.1606 45.9194 16.774 46.2128 17.2807 46.7194C18.2407 47.6794 18.0539 49.4128 16.8806 50.5594V50.5861ZM40.694 15.4128C36.294 15.4128 32.694 18.9861 32.694 23.3861C32.694 27.7861 36.294 31.3594 40.694 31.3594C45.094 31.3594 48.694 27.7861 48.694 23.3861C48.694 18.9861 45.094 15.4128 40.694 15.4128ZM40.694 27.3861C38.4807 27.3861 36.694 25.5994 36.694 23.4128C36.694 21.2261 38.4807 19.4394 40.694 19.4394C42.9073 19.4394 44.694 21.2261 44.694 23.4128C44.694 25.5994 42.9073 27.3861 40.694 27.3861ZM57.174 8.18611C56.9873 7.46611 56.4273 6.90611 55.7073 6.74611C55.0673 6.58611 39.654 2.98611 29.6006 13.0394C28.2406 14.3994 27.094 15.7328 26.0273 17.0128L20.454 18.2128C15.174 19.0661 10.6939 22.6661 8.7206 27.5994L6.16062 33.9728C5.89395 34.6661 6.0006 35.4394 6.4806 35.9994C6.85394 36.4528 7.41396 36.6928 8.00062 36.6928C8.13396 36.6928 8.29397 36.6928 8.4273 36.6394L17.414 34.6394C17.2806 35.0928 17.1473 35.5461 16.9873 36.0261C16.6406 37.2261 16.9339 38.5061 17.8139 39.3594L24.534 46.0794C25.174 46.7194 26.0273 47.0661 26.9073 47.0661C27.2006 47.0661 27.494 47.0394 27.7606 46.9594C28.3206 46.7994 28.8539 46.6661 29.3873 46.5061L27.3606 55.5461C27.2006 56.2661 27.4406 57.0128 28.0273 57.4928C28.4007 57.8128 28.854 57.9728 29.334 57.9728C29.574 57.9728 29.8406 57.9194 30.0806 57.8394L36.454 55.2794C41.414 53.3061 45.0407 48.8261 45.8673 43.6794L47.0407 38.2928C48.374 37.1994 49.734 36.0261 51.174 34.5861C61.2273 24.5061 57.334 8.82611 57.174 8.15945V8.18611ZM11.3073 31.9461L12.454 29.0928C13.894 25.4395 17.2273 22.7994 21.2007 22.1594L22.6673 21.8394C22.0006 22.9594 21.4406 24.0794 20.9073 25.2528C20.8806 25.3061 20.854 25.3594 20.8273 25.4128C20.1073 26.9594 19.4673 28.5861 18.8806 30.2661L11.3073 31.9461ZM27.1207 43.0128L20.9606 36.8528C21.7606 34.1594 22.5339 31.8128 23.3873 29.6261L34.5606 40.7728C32.3739 41.5728 29.9739 42.2661 27.1473 43.0394L27.1207 43.0128ZM41.9473 42.9594C41.334 46.8261 38.6673 50.1328 34.9873 51.5728L32.1339 52.7194L33.8139 45.2261C35.6006 44.6661 37.254 44.0261 38.8273 43.3594C38.854 43.3594 38.9073 43.3328 38.934 43.3061C40.0806 42.7994 41.1739 42.2394 42.2406 41.6261L41.9473 42.9594ZM38.534 39.0928L25.094 25.6794C26.774 22.3994 28.9606 19.3328 32.4273 15.8661C39.3873 8.90611 49.9739 9.83945 53.5473 10.3994C54.1873 13.9994 55.334 24.7994 48.3473 31.7861C44.8806 35.2528 41.894 37.4395 38.534 39.0928Z" fill="#2449FB"/>
</g>
</svg>
